PathFileType	4	(X/Y/Z)	Patient4_TMGait_0pt4_03_right_32.trc.trc
DataRate	CameraRate	NumFrames	NumMarkers	Units	OrigDataRate	OrigDataStartFrame	OrigNumFrames
73.684210526316	73.684210526316	6	33	mm	73.684210526316	124	       141
Frame#	Time	Sacral			L.Shoulder			Chest			R.Shoulder			Neck			R.ASIS			L.ASIS			R.Thigh.Superior			R.Thigh.Lateral			R.Thigh.Inferior			R.Patella			L.Thigh.Superior			L.Thigh.Lateral			L.Thigh.Inferior			L.Patella			L.Shank.Superior			L.Shank.Lateral			L.Shank.Inferior			R.Shank.Superior			R.Shank.Lateral			R.Shank.Inferior			R.Heel			R.Midfoot.Superior			R.Midfoot.Lateral			R.Toe			L.Heel			L.Midfoot.Lateral			L.Midfoot.Superior			L.Toe			L.Elbow			L.Wrist			R.Elbow			R.Wrist			
		X1	Y1	Z1	X2	Y2	Z2	X3	Y3	Z3	X4	Y4	Z4	X5	Y5	Z5	X6	Y6	Z6	X7	Y7	Z7	X8	Y8	Z8	X9	Y9	Z9	X10	Y10	Z10	X11	Y11	Z11	X12	Y12	Z12	X13	Y13	Z13	X14	Y14	Z14	X15	Y15	Z15	X16	Y16	Z16	X17	Y17	Z17	X18	Y18	Z18	X19	Y19	Z19	X20	Y20	Z20	X21	Y21	Z21	X22	Y22	Z22	X23	Y23	Z23	X24	Y24	Z24	X25	Y25	Z25	X26	Y26	Z26	X27	Y27	Z27	X28	Y28	Z28	X29	Y29	Z29	X30	Y30	Z30	X31	Y31	Z31	X32	Y32	Z32	X33	Y33	Z33	

124	43.209285714286	858.791032698178	1005.576563180285	415.202002849746	1064.154676225752	1428.261556164060	241.482054038066	1146.575554487319	1362.728231104185	414.602589227775	1043.803257444428	1438.405551684598	576.937718209421	1023.225996109294	1492.802916527568	394.937315024079	1076.241443877801	940.746870103281	555.506928766356	1086.043542621199	957.183408053993	279.980246962653	1131.589727670153	748.992618865722	535.236465648926	1064.359253473049	635.779063217031	601.927366364779	1150.252310103404	588.107705682914	525.787574186797	1169.043432227397	509.240851995312	540.408915020596	1091.960083753039	730.285306958760	307.851923101375	981.708525676904	633.465356553589	237.173834592139	1042.943954872693	541.448377918966	301.613698617913	1029.767581277568	474.527676630858	308.454780854792	996.272997249457	408.035588168695	298.429293121687	893.883546133742	305.555857869529	244.839433409930	929.160892278208	187.461638157693	314.119459122858	1154.029929235326	421.380319121636	553.369671392579	1097.550612187674	309.584876398539	616.333916005139	1166.700635108339	222.464647893883	567.035099808718	1072.762923505088	42.762813912144	538.086420028430	1236.926893628021	106.772883020532	581.222419098684	1154.116740740414	39.249097668978	615.038302146951	1359.026105916303	64.706466941705	611.311187770492	790.572774775817	39.408074467083	358.010307894709	860.330246368398	35.079783482971	274.084064545187	945.679630565056	94.426474734007	299.142778380999	1072.352107873576	41.054198256006	262.706545191406	1117.774755158942	1101.543411080172	83.589687796799	1366.118268137740	1022.332549262132	75.922680142551	916.509737147045	1115.350224023147	685.491832660533	924.135440174870	852.678818495898	681.736285165608	
125	43.222857142857	860.581547170849	1004.252871133085	418.661264832234	1063.587393195844	1427.605914416517	244.662113624931	1146.881792988745	1362.576880354417	417.600566596222	1044.068814212030	1437.638619805888	580.284237145477	1022.931650518540	1492.067076684447	398.222863789301	1078.773861630495	939.849440120303	558.165065952201	1087.634747470114	956.721463955545	282.709271992530	1134.937725810009	748.125797651454	537.306901189675	1066.011083901231	634.354075579778	602.262536270671	1152.519261026424	587.444157740258	526.616715108322	1169.712850554257	507.394772984481	539.994654202663	1093.188029524606	729.308436843228	309.547651454302	982.297977128392	632.864077389118	239.329832489199	1043.604658494488	540.377435649638	303.106328219199	1030.417389137050	472.903765594048	309.659993908191	995.568575391124	406.896001160409	299.630763264262	891.353379459709	306.076292150572	245.960224942411	925.209843102905	187.094123855941	314.508601129569	1153.553224866374	418.650916354655	552.550984720314	1094.980342368409	307.756526962974	615.313588995923	1161.444587049017	219.309070635873	565.111865281620	1062.796805237035	42.619894942407	536.094172007205	1228.088769174336	103.360860805508	578.874336723011	1143.836734863371	38.217655051536	613.450158220218	1349.572104889317	58.974072701229	609.763765088460	785.093465392571	39.873463705676	357.899948905057	854.930722238689	35.225791332502	274.111099257910	940.441273189656	94.463396855374	299.115227637373	1066.976020956475	40.791961283062	262.611028178283	1115.947733938793	1099.785154887971	87.831359753678	1363.355546609728	1016.859528707135	79.852680936614	920.571376536951	1113.094562933667	689.439232096766	932.329939235049	850.461506436128	685.116522174103	
126	43.236428571429	862.383912876129	1003.087149558023	422.228622039181	1062.994566157997	1427.132071647974	247.983372563030	1147.194104105337	1362.591241819771	420.716423887984	1044.370153026338	1437.013156782612	583.785573600339	1022.645041745618	1491.506725346192	401.666160208404	1081.376358609333	939.187981553781	560.892312826600	1089.234677649393	956.433656494143	285.518393230665	1138.431690096629	747.520983654830	539.325352758533	1068.125969552286	633.356187694712	602.864372141726	1155.049860358954	587.072507542678	527.504220396698	1170.707659915679	505.806021337228	539.744202642773	1094.655561391480	728.541881314682	311.204480715983	983.175370738495	632.320051135551	241.569776031333	1044.829738100957	539.405587206522	304.537904977340	1031.720490961566	471.260338590332	310.744770240613	995.325833840525	405.772511112750	300.795258929096	889.134238566184	306.816109215306	247.136832786489	921.461860594251	186.876760392106	314.843088359957	1153.480158400299	416.321024363161	551.996938368163	1093.167546954686	306.343486968648	614.913521546284	1156.784688202521	216.576368090572	563.592501177218	1053.496188053056	42.535387412784	534.840266446937	1219.815890447899	100.633171317157	576.966892791103	1134.406882447568	37.488475258038	612.434358038336	1340.864092507545	54.286281512813	608.437967959674	779.646675903783	40.710300043315	357.757377710003	849.566200787635	35.535561248285	274.129888365982	935.344387224612	94.566925003269	299.007739183889	1061.628287819836	40.485671886133	262.492039105426	1113.656402181569	1098.009096776914	92.405870339577	1359.787151438992	1010.427482022276	83.736171403134	925.264750728498	1110.757831203709	693.634989711428	941.766578113732	848.241977937520	688.905941491008	
127	43.250000000000	864.185093740979	1002.148814254570	425.876190014637	1062.405665076142	1426.893554430557	251.418411075694	1147.516595344113	1362.806684403782	423.922551533068	1044.721035015327	1436.585585493116	587.403257453077	1022.379682616135	1491.169900572692	405.233503192065	1083.983116940828	938.800914327983	563.691916280442	1090.841529524659	956.369784539080	288.407880950117	1141.858876090843	747.166650107597	541.272836497604	1070.589661952392	632.799713718847	603.810468813438	1157.626856068301	586.949916315869	528.455489540563	1171.855728510617	504.508188747569	539.771429316295	1096.377417129136	728.048905853475	312.866524084797	984.404147442826	631.868729808322	243.871515765987	1046.710229837689	538.584557756311	305.890479405096	1033.760087755893	469.644780667372	311.655332348754	995.620316604991	404.710941181366	301.877224772527	887.304424658428	307.847108935149	248.340675615786	917.985510762061	186.887263578141	315.087401651456	1153.667933023530	414.452414346084	551.795223884331	1092.012108119571	305.345461051910	615.124856469549	1152.784133879881	214.362313601546	562.537512679342	1045.189316178585	42.493204580295	534.229888930403	1212.363425525055	98.664012541995	575.584014656244	1126.106936295185	37.038268889917	611.933030948300	1333.141737049821	50.786364405789	607.428522756383	774.275249797742	42.069838458910	357.577219283708	844.259249717618	36.090443220602	274.132663194088	930.446810263468	94.764230914844	298.791221511863	1056.309835067197	40.137450033594	262.352012988808	1110.922755777830	1096.283762944739	97.315093700511	1355.330240958480	1003.058353762777	87.544234346419	930.531227043754	1108.468233409867	698.047062028499	952.403486774333	846.188248345661	693.087182191200	
128	43.263571428571	865.974325360470	1001.484988859655	429.592979101367	1061.836389512785	1426.925141242029	254.939616603019	1147.846857843505	1363.245112310246	427.189937629791	1045.129872990832	1436.397323088364	591.097420188018	1022.137574063123	1491.085178031306	408.890554818212	1086.538403929964	938.702924155764	566.575687759357	1092.449407202426	956.566155685645	291.383062476718	1145.043521963161	747.042032323879	543.147182058257	1073.263393091512	632.651373747719	605.135821581470	1160.057530099648	587.011191187034	529.486526937574	1172.983620522294	503.492754816918	540.151337142017	1098.372519238445	727.880605804377	314.591809225230	986.076384961886	631.534408345420	246.209228599361	1049.359415950346	537.959568638971	307.152927355571	1036.639479214877	468.102581787690	312.342831470302	996.556089951325	403.753982475877	302.830036806002	885.970632012992	309.239539796513	249.540244933748	914.871453550183	187.207055297504	315.207863053966	1153.934649879638	413.039977234047	551.981039525810	1091.294362886249	304.719796377590	615.859632329748	1149.357053528110	212.684162332305	561.945689549944	1037.953051543024	42.483932799812	534.122711179746	1205.777446586518	97.416893612316	574.727898894713	1118.962767347329	36.819271613998	611.845012012493	1326.419328662631	48.434948294149	606.769717717628	769.040672651274	44.117579630358	357.355834637088	839.042475584937	36.989454974548	274.112163222838	925.815417277685	95.088183483153	298.439943153417	1051.019424248500	39.753636724545	262.196725601562	1107.779041371927	1094.673152892850	102.551832285150	1349.887685325698	994.781363908690	91.266209633796	936.308361546028	1106.344405951538	702.653286601741	964.216758163516	844.480052603314	697.628490716339	
129	43.277142857143	867.739971033071	1001.112538846314	433.385808228326	1061.284398207586	1427.234132270690	258.522421063034	1148.176796485015	1363.909178329449	430.490841512762	1045.601878764888	1436.467015208138	594.832119583268	1021.911458765001	1491.255543828828	412.606792383675	1089.003263951541	938.881781667401	569.557078637150	1094.042129007090	957.037553218332	294.450610079093	1147.855505919016	747.103812109556	544.972740868537	1075.963690391957	632.832054722744	606.830849018793	1162.166795536678	587.170796957493	530.627123574863	1173.912845176651	502.714587315792	540.904592583120	1100.662784725686	728.068412828407	316.442162585064	988.308083199851	631.325123656590	248.554427579519	1052.904337736255	537.564544840134	308.323752783433	1040.476166610132	466.673943756195	312.773082064821	998.261779050057	402.936691067900	303.614378624448	885.266212224380	311.055902491670	250.705826562162	912.229918826993	187.915656690642	315.179004344662	1154.078371693706	412.026004502536	552.539266943283	1090.729696636971	304.390859008781	616.978305403457	1146.321283128058	211.494994420514	561.765854617963	1031.677422298662	42.500091054951	534.362403855418	1199.952579985122	96.776656547677	574.335854176986	1112.819239953886	36.771592297422	612.049666833746	1320.553161500855	47.063211182785	606.443167343388	764.024376811678	47.024707783939	357.092132436250	833.960750198667	38.349390823308	274.062894578465	921.524047246940	95.578127288331	297.937060103467	1045.754277138795	39.343572716609	262.035264536939	1104.265940570576	1093.226232115023	108.096216255104	1343.351433945168	985.638299789028	94.914514237834	942.530860361045	1104.485249248145	707.445700555844	977.201695832307	843.303406934193	702.484513241925	
